<svg id="Layer_1" data-name="Layer 1" xmlns="http://www.w3.org/2000/svg" viewBox="0 0 210.46 212.16"><defs><style>.cls-1{fill:#fff;}</style></defs><path class="cls-1" d="M9.37,109.55,91,187.48a8.12,8.12,0,1,1-11.22,11.75l-.27-.26L1.53,117.39a5.55,5.55,0,0,1,7.84-7.84Z"/><path class="cls-1" d="M67.12,56.08l121,115.62a12.06,12.06,0,0,1-16.65,17.44c-.12-.12-.28-.27-.39-.39L55.49,67.7A8.22,8.22,0,0,1,67.12,56.08Z"/><path class="cls-1" d="M117.5,1.55,200,80.39a8.22,8.22,0,0,1-11.35,11.89,3.44,3.44,0,0,1-.27-.27L109.58,9.47a5.6,5.6,0,0,1,7.92-7.92Z"/><path class="cls-1" d="M102.2,176.52l1.69,28.09a7.13,7.13,0,0,1-6.69,7.54,7.67,7.67,0,0,1-1,0L68.17,210a5.71,5.71,0,0,1,.09-11.39L96.35,197l-7.64,7.53,2.11-28.07a5.7,5.7,0,0,1,11.38.09Z"/><path class="cls-1" d="M205,156.37l5.32,41.7a12.53,12.53,0,0,1-14.18,14l-41.62-5.94a8.52,8.52,0,0,1,.12-16.89l41.71-5.32-14.18,14,5.94-41.62a8.52,8.52,0,0,1,16.89.13Z"/><path class="cls-1" d="M208.79,67.29,210.45,95a7,7,0,0,1-6.58,7.42,7.51,7.51,0,0,1-1,0l-27.63-2.07a5.62,5.62,0,0,1,.08-11.21L203,87.42l-7.52,7.41,2.07-27.63a5.62,5.62,0,0,1,11.21.09Z"/></svg>